<?xml version="1.0" standalone="no"?>
<!DOCTYPE svg PUBLIC "-//W3C//DTD SVG 20010904//EN"
 "http://www.w3.org/TR/2001/REC-SVG-20010904/DTD/svg10.dtd">
<svg version="1.0" xmlns="http://www.w3.org/2000/svg"
 width="500.000000pt" height="500.000000pt" viewBox="0 0 500.000000 500.000000"
 preserveAspectRatio="xMidYMid meet">
<metadata>
Created by potrace 1.14, written by Peter Selinger 2001-2017
</metadata>
<g transform="translate(0.000000,500.000000) scale(0.100000,-0.100000)"
fill="#000000" stroke="none">
<path d="M2650 4299 c-568 -57 -1052 -359 -1372 -855 -59 -92 -168 -348 -168
-395 0 -8 -7 -27 -15 -43 -12 -22 -17 -78 -21 -218 -7 -214 -3 -245 32 -288
l26 -30 -68 0 c-50 0 -65 -3 -57 -11 6 -6 9 -17 7 -24 -6 -15 -3 -31 61 -339
49 -239 58 -352 29 -380 -8 -9 -20 -16 -26 -16 -6 0 -8 -3 -5 -6 4 -4 18 1 32
10 14 9 25 12 25 6 0 -5 8 -10 17 -10 13 0 14 -3 6 -11 -19 -19 -3 -39 32 -39
37 0 31 6 135 -141 218 -308 398 -466 705 -619 146 -73 333 -140 429 -155 53
-9 168 -25 236 -34 36 -5 119 -10 185 -11 111 -2 162 3 270 29 22 6 62 15 89
20 27 6 54 15 60 19 6 5 54 23 106 41 554 191 983 642 1146 1205 186 643 6
1323 -473 1787 -158 153 -285 243 -475 334 -303 145 -632 206 -948 174z
m-1078 -1115 c-2 -110 0 -159 9 -170 10 -12 5 -14 -32 -14 -33 0 -40 3 -31 12
8 8 12 58 12 159 l0 146 -77 5 c-43 3 -84 3 -90 1 -16 -6 -18 -275 -3 -304 10
-18 7 -19 -42 -19 -50 0 -52 1 -30 16 21 14 22 22 22 163 0 81 -4 151 -10 157
-6 6 43 8 133 6 l142 -3 -3 -155z m420 -86 c-3 -75 -1 -88 12 -88 9 0 16 -8
16 -20 0 -24 -8 -25 -34 -5 -26 20 -106 19 -134 -1 -19 -13 -22 -13 -22 0 0 8
12 27 26 41 24 24 26 32 22 94 l-3 68 60 -1 60 0 -3 -88z m-201 50 c32 -53 3
-138 -51 -146 -63 -10 -110 30 -110 94 0 55 33 84 96 84 39 0 47 -4 65 -32z
m-61 -338 c0 -49 3 -90 8 -90 26 0 140 99 151 131 9 27 13 29 65 29 31 0 56
-2 56 -4 0 -3 -33 -25 -74 -50 -40 -26 -81 -55 -91 -66 -18 -20 -18 -21 3 -48
12 -15 29 -40 38 -57 23 -41 87 -127 107 -144 37 -30 21 -41 -58 -41 -74 0
-86 5 -64 27 24 24 -87 193 -127 193 -20 0 -19 -136 1 -170 25 -45 20 -50 -50
-50 -36 0 -65 3 -65 8 0 4 6 17 14 28 10 14 15 59 17 157 3 121 1 138 -16 157
-10 11 -15 23 -11 27 10 10 80 51 89 52 4 1 7 -39 7 -89z m450 68 c-3 -38 -1
-42 19 -24 31 28 82 31 135 8 64 -29 85 -76 86 -193 0 -79 -2 -89 -29 -125
-45 -63 -76 -79 -152 -78 l-67 1 -4 -31 c-2 -17 -1 -74 2 -126 5 -94 5 -94 39
-117 l34 -23 -44 -2 c-112 -4 -141 -3 -146 5 -3 5 -1 12 4 16 30 19 34 57 34
318 l1 267 -24 18 c-22 18 -22 19 -4 30 11 6 36 26 55 44 42 39 63 43 61 12z
m-697 -18 c84 -39 121 -136 92 -236 -21 -72 -36 -95 -85 -129 -68 -47 -167
-31 -243 39 -38 35 -57 85 -57 147 0 94 53 159 148 185 67 18 96 17 145 -6z
m1274 1 c171 -78 108 -391 -78 -391 -132 0 -229 104 -214 230 8 67 36 111 89
141 74 42 140 48 203 20z m354 -1 c62 -32 78 -97 35 -147 l-24 -28 24 -28 c28
-34 33 -100 8 -135 -27 -39 -67 -52 -162 -52 -49 0 -92 3 -95 7 -4 3 1 15 10
26 26 28 33 316 9 336 -9 8 -16 20 -16 27 0 24 161 19 211 -6z m392 0 c76 -36
117 -127 97 -217 -17 -72 -38 -110 -83 -143 -86 -63 -221 -26 -284 78 -28 46
-31 137 -7 189 22 44 73 83 132 99 67 18 96 17 145 -6z m262 -17 c11 -62 81
-233 95 -233 8 0 48 92 90 208 l22 62 44 0 c47 0 58 -16 29 -40 -22 -19 -22
-312 0 -330 29 -24 10 -34 -56 -31 -35 1 -66 5 -69 7 -3 3 6 13 18 23 20 14
25 29 29 89 5 75 -2 131 -16 116 -5 -5 -28 -60 -51 -122 -24 -62 -47 -111 -52
-110 -9 3 -68 132 -95 205 -25 72 -33 60 -33 -48 0 -91 2 -105 21 -125 30 -32
17 -44 -43 -38 -29 2 -54 7 -57 9 -2 3 5 14 17 25 24 23 30 78 23 235 -2 62
-7 85 -22 101 -10 11 -19 23 -19 27 0 4 27 7 60 7 l59 0 6 -37z m-2497 -475
c-3 -7 -13 -17 -24 -23 -21 -11 -24 -27 -23 -142 0 -51 -4 -84 -12 -88 -8 -6
-7 -10 2 -16 10 -6 11 -9 2 -9 -20 0 -15 -17 7 -23 11 -3 20 -10 20 -16 0 -6
-7 -8 -15 -5 -9 4 -15 0 -15 -10 0 -9 -4 -16 -9 -16 -5 0 -11 -7 -15 -15 -4
-13 -2 -13 14 -5 10 5 22 15 25 20 4 6 11 8 16 5 5 -4 9 0 9 7 0 20 36 17 37
-3 1 -11 -8 -19 -27 -22 -21 -5 -31 -15 -40 -41 -6 -20 -9 -40 -5 -46 9 -14
-20 -24 -39 -13 -10 6 -12 13 -6 23 8 13 10 12 10 -2 0 -10 5 -18 11 -18 5 0
2 13 -8 30 -9 17 -21 30 -24 30 -10 0 -21 -34 -17 -51 3 -15 43 -39 64 -39 20
0 17 -40 -3 -63 -10 -11 -13 -17 -6 -14 12 7 16 -2 28 -60 5 -27 4 -32 -9 -27
-8 3 -17 13 -19 22 -3 10 -4 2 -3 -15 1 -27 4 -32 20 -27 13 4 16 2 11 -6 -5
-8 0 -11 15 -8 13 2 25 -3 27 -9 6 -16 -43 -18 -53 -2 -4 8 -9 8 -17 0 -14
-14 -37 -14 -37 0 0 5 4 8 9 4 6 -3 6 6 1 24 -4 16 -5 33 -2 36 4 4 -2 5 -13
1 -16 -5 -21 -1 -21 14 0 12 5 19 13 16 17 -7 24 7 12 24 -8 13 -10 13 -19 0
-7 -11 -10 -2 -10 33 0 26 5 47 10 47 6 0 10 -4 10 -10 0 -5 7 -10 15 -10 8 0
15 7 15 15 0 9 -9 15 -25 15 -24 0 -24 1 -23 86 1 85 1 86 19 63 10 -13 19
-19 19 -14 0 6 -5 16 -11 22 -14 14 -3 47 12 37 7 -4 10 -1 7 7 -3 8 -13 13
-24 11 -18 -2 -19 5 -19 118 l0 120 -32 17 c-18 10 -33 21 -33 25 0 5 45 8
101 8 76 0 100 -3 97 -12z m332 -4 c0 -8 -4 -12 -10 -9 -5 3 -10 2 -10 -4 0
-15 18 -23 25 -11 4 7 12 7 26 0 16 -9 19 -7 19 10 0 25 25 37 44 21 7 -6 16
-9 20 -6 3 3 2 0 -3 -7 -8 -8 -14 -8 -26 2 -13 11 -15 9 -15 -9 0 -12 4 -19
10 -16 6 3 7 -1 4 -9 -3 -9 -9 -14 -13 -12 -4 3 -5 -22 -3 -54 l4 -59 -41 -7
c-22 -4 -41 -10 -41 -15 0 -12 47 -11 55 1 15 24 22 -3 10 -37 -12 -34 -46
-73 -64 -73 -4 0 -7 33 -7 73 1 63 3 72 19 69 9 -2 17 2 17 8 0 5 -9 10 -20
10 -22 0 -29 39 -7 41 8 0 8 2 -2 6 -10 4 -11 7 -1 13 9 6 6 15 -14 36 -29 32
-33 46 -12 38 8 -3 17 -1 21 5 9 15 15 14 15 -5z m39 -326 c-27 -22 -31 -30
-20 -40 10 -11 15 -10 25 5 18 23 29 22 16 -3 -6 -11 -20 -20 -30 -20 -24 0
-25 -6 -5 -27 12 -12 13 -18 4 -29 -9 -11 -9 -18 -1 -26 9 -9 12 -9 12 0 0 7
6 12 14 12 9 0 14 -9 13 -20 -1 -18 -10 -24 -29 -21 -18 3 -6 -30 14 -38 19
-7 19 -8 4 -14 -22 -9 -39 0 -30 15 4 6 1 9 -7 6 -8 -3 -13 -15 -12 -27 2 -11
-2 -21 -7 -21 -13 0 -13 37 0 45 8 5 7 11 -1 21 -9 11 -8 14 4 14 10 0 14 6
11 15 -4 8 -10 13 -14 10 -5 -3 -8 4 -7 15 1 12 6 19 14 16 7 -3 13 1 13 9 0
19 -17 28 -23 13 -4 -9 -6 -8 -6 3 -1 8 5 21 11 27 10 10 10 15 -2 22 -12 8
-12 11 2 27 8 10 13 24 11 31 -3 7 1 10 10 6 8 -3 21 1 28 9 9 10 15 11 18 4
2 -6 -11 -23 -30 -39z m1016 15 c-5 -10 -8 -43 -7 -73 1 -61 -9 -88 -18 -50
-3 14 -12 25 -20 25 -8 0 -18 7 -21 15 -8 18 8 53 20 45 5 -2 14 2 21 10 19
23 -9 19 -35 -5 -13 -12 -25 -16 -34 -11 -10 6 0 16 35 34 59 31 68 32 59 10z
m235 -3 c0 -13 -30 -33 -37 -26 -4 4 -1 11 7 16 11 7 6 10 -18 10 -20 0 -31
-4 -27 -10 3 -5 1 -10 -4 -10 -24 0 -9 29 17 32 33 4 62 -2 62 -12z m-1290 1
c0 -6 -5 -13 -11 -17 -6 -3 -8 -18 -5 -33 6 -25 6 -25 -9 -7 -8 11 -15 23 -15
28 0 4 -5 8 -11 8 -6 0 -9 -7 -5 -15 3 -9 0 -15 -8 -15 -8 0 -16 7 -20 15 -3
8 -1 15 5 15 6 0 17 7 25 15 17 17 54 20 54 6z m875 -17 c-10 -7 -21 -11 -26
-8 -9 5 -5 -43 4 -53 4 -3 7 -1 7 5 0 7 4 12 8 12 4 0 8 -9 8 -19 0 -11 -3
-19 -6 -19 -18 1 -30 -3 -30 -12 0 -5 9 -10 20 -10 14 0 20 -7 20 -21 0 -11
-3 -18 -7 -16 -5 2 -20 -1 -35 -7 -23 -10 -25 -13 -13 -30 13 -17 15 -17 30
-2 21 20 20 20 22 -4 1 -11 -4 -20 -13 -20 -8 0 -13 -3 -12 -7 2 -5 -4 -18
-13 -30 -15 -22 -15 -21 -15 18 0 23 -6 44 -13 48 -22 14 -4 50 21 43 20 -5
20 -4 3 22 -10 15 -13 26 -6 26 6 0 11 5 11 11 0 6 -6 9 -14 6 -8 -3 -20 1
-26 9 -10 11 -9 14 3 14 22 0 32 20 16 31 -11 7 -10 9 4 9 9 0 17 5 17 11 0 5
4 8 9 4 5 -3 12 -1 16 5 4 6 11 7 17 4 7 -5 5 -12 -7 -20z m-1005 7 c14 -4 26
-16 28 -26 3 -19 2 -19 -11 -2 -8 9 -20 17 -28 17 -11 0 -11 -2 1 -10 13 -8
13 -10 -2 -11 -61 -5 -78 -3 -78 9 0 7 -5 10 -10 7 -6 -4 -8 -11 -5 -16 7 -11
-13 -11 -40 1 -19 8 -19 9 3 9 13 1 30 8 38 16 16 16 61 18 104 6z m586 0 c7
-1 29 -17 50 -36 22 -20 34 -34 27 -33 -6 2 -19 -6 -28 -17 -9 -11 -14 -14
-10 -7 3 6 1 12 -5 12 -7 0 -9 7 -6 16 7 18 -12 48 -33 52 -7 1 -19 -2 -27 -9
-15 -12 -84 -4 -84 11 0 17 22 19 116 11z m-145 -28 c-6 -11 -11 -13 -11 -5 0
7 -4 11 -10 7 -5 -3 -7 -12 -4 -19 3 -8 1 -17 -4 -20 -5 -3 -12 3 -15 14 -4
15 2 24 21 34 32 17 38 14 23 -11z m370 -14 c-12 -10 -27 -16 -32 -13 -5 3 -9
-3 -9 -13 0 -15 -3 -14 -16 6 -21 29 -6 48 24 32 28 -15 35 -14 29 3 -7 19 4
29 17 15 8 -7 4 -16 -13 -30z m567 9 c19 -2 14 -18 -5 -19 -15 0 -15 -2 -3 -7
9 -4 16 -24 18 -47 2 -22 1 -37 -4 -32 -4 4 -8 15 -9 25 -1 9 -6 27 -13 38 -6
12 -8 25 -4 29 4 4 0 6 -8 3 -8 -3 -15 -11 -15 -20 0 -8 -8 -23 -18 -32 -9
-10 -17 -22 -17 -27 0 -6 -5 -7 -11 -3 -8 4 -8 9 0 17 7 7 7 14 0 24 -9 10 -5
15 17 24 23 10 25 13 12 16 -10 3 -18 8 -18 12 0 7 19 6 78 -1z m-998 -47 c0
-4 -6 -13 -12 -19 -10 -10 -10 -17 -1 -31 9 -14 9 -18 0 -17 -7 0 -12 -3 -12
-9 0 -5 7 -9 15 -7 8 1 5 -4 -8 -11 -12 -7 -19 -16 -15 -21 4 -4 1 -11 -7 -16
-25 -16 -32 -11 -16 11 10 16 12 28 5 46 -12 31 -11 36 2 27 8 -4 9 0 4 15 -4
15 -2 21 9 21 10 0 13 6 10 15 -5 11 -2 13 10 9 9 -3 16 -9 16 -13z m218 -6
c-3 -3 -9 2 -12 12 -6 14 -5 15 5 6 7 -7 10 -15 7 -18z m243 -86 c15 -13 16
-19 7 -27 -9 -7 -17 -6 -26 4 -8 9 -9 14 -2 14 6 0 8 5 5 11 -4 6 -13 8 -20 5
-7 -2 -16 2 -19 10 -3 8 1 14 9 14 20 0 19 34 -1 51 -14 12 -14 14 3 20 15 5
18 0 21 -39 2 -30 10 -52 23 -63z m-157 28 c3 -44 1 -55 -10 -50 -8 3 -16 -2
-20 -10 -3 -9 -12 -13 -20 -10 -12 4 -10 8 8 17 13 7 24 22 26 36 l3 25 -26
-28 c-29 -33 -34 -21 -5 13 24 28 25 31 3 23 -16 -6 -16 -5 -4 10 7 9 17 14
22 11 5 -3 9 -2 8 3 -3 15 1 26 6 21 3 -3 7 -30 9 -61z m106 43 c0 -5 -2 -10
-4 -10 -3 0 -8 5 -11 10 -3 6 -1 10 4 10 6 0 11 -4 11 -10z m344 -9 c3 -5 0
-13 -7 -19 -10 -8 -13 -6 -13 9 0 20 11 25 20 10z m46 -65 c0 -21 -3 -27 -9
-17 -11 17 -34 4 -27 -15 3 -8 0 -14 -7 -14 -7 0 -13 14 -14 31 -2 29 0 31 24
25 23 -6 24 -6 9 9 -21 21 -20 24 4 18 15 -4 20 -14 20 -37z m172 10 c-2 -10
4 -16 18 -16 17 0 20 -6 20 -39 0 -41 -23 -62 -44 -40 -8 9 -7 10 3 4 8 -4 17
-2 22 6 14 23 10 29 -18 29 -22 0 -25 2 -13 10 10 6 11 10 3 10 -7 0 -13 9
-13 20 0 11 6 20 13 20 8 0 7 4 -3 11 -13 9 -13 10 0 6 8 -2 14 -11 12 -21z
m-422 -31 c0 -2 -10 -10 -22 -16 -21 -11 -22 -11 -9 4 13 16 31 23 31 12z
m340 -16 c0 -6 -4 -7 -10 -4 -5 3 -10 11 -10 16 0 6 5 7 10 4 6 -3 10 -11 10
-16z m-890 -29 c-8 -5 -10 -18 -6 -35 6 -22 4 -26 -11 -23 -10 2 -19 10 -21
18 -3 19 29 60 41 53 5 -3 4 -9 -3 -13z m305 11 c3 -5 1 -12 -5 -16 -5 -3 -10
1 -10 9 0 18 6 21 15 7z m505 -7 c0 -8 -13 -12 -35 -11 -37 2 -47 13 -17 20
30 7 52 3 52 -9z m16 -29 c-17 -13 -23 -30 -6 -20 6 3 10 1 10 -4 0 -6 -8 -11
-17 -11 -15 0 -15 -1 -1 -12 10 -9 13 -21 8 -38 -6 -25 -6 -25 -12 -2 -4 13
-2 22 5 22 7 1 1 7 -13 15 -14 8 -19 14 -12 15 6 0 12 7 12 17 0 20 33 54 39
40 2 -6 -4 -16 -13 -22z m-1006 3 c0 -27 -10 -43 -27 -44 -29 -2 -33 -5 -33
-19 0 -8 -5 -15 -10 -15 -5 0 -9 -3 -9 -7 3 -20 -2 -27 -10 -14 -12 18 -2 43
13 34 6 -3 6 -1 -1 8 -18 18 -16 32 3 25 8 -3 27 -3 41 0 20 5 24 12 20 30 -2
13 0 24 4 24 5 0 9 -10 9 -22z m447 16 c-3 -4 -2 -15 4 -25 7 -14 6 -17 -5
-13 -8 3 -13 13 -11 22 5 23 4 22 12 22 3 0 3 -3 0 -6z m373 -4 c0 -5 -4 -10
-10 -10 -5 0 -10 5 -10 10 0 6 5 10 10 10 6 0 10 -4 10 -10z m223 -20 c-3 -12
-8 -19 -11 -16 -5 6 5 36 12 36 2 0 2 -9 -1 -20z m-268 -31 c4 -11 16 -24 28
-29 21 -8 21 -9 2 -9 -12 -1 -27 11 -37 29 -9 17 -13 30 -8 30 5 0 12 -9 15
-21z m45 1 c0 -11 -6 -20 -14 -20 -9 0 -14 9 -13 20 1 11 7 20 14 20 7 0 13
-9 13 -20z m115 11 c3 -5 1 -12 -5 -16 -5 -3 -10 1 -10 9 0 18 6 21 15 7z
m229 3 c14 -5 14 -8 1 -21 -17 -16 -35 -9 -35 13 0 15 9 17 34 8z m-709 -24
c3 -5 2 -10 -4 -10 -5 0 -13 5 -16 10 -3 6 -2 10 4 10 5 0 13 -4 16 -10z
m-275 -10 c0 -5 -2 -10 -4 -10 -3 0 -8 5 -11 10 -3 6 -1 10 4 10 6 0 11 -4 11
-10z m98 -25 c2 -1 -3 -5 -11 -8 -7 -3 -19 4 -26 15 -11 18 -10 18 11 7 13 -6
24 -13 26 -14z m662 4 c0 -4 -7 -6 -15 -3 -8 4 -15 10 -15 15 0 4 7 6 15 3 8
-4 15 -10 15 -15z m-555 2 c3 -5 1 -12 -5 -16 -6 -4 -7 -12 -4 -18 4 -7 -1 -5
-11 5 -9 9 -14 21 -11 27 9 13 23 14 31 2z m41 -6 c-11 -8 -22 -12 -25 -9 -6
6 19 24 34 24 6 -1 1 -7 -9 -15z m705 -8 c-10 -9 -11 -8 -5 6 3 10 9 15 12 12
3 -3 0 -11 -7 -18z m64 13 c-3 -5 -14 -10 -23 -10 -15 0 -15 2 -2 10 20 13 33
13 25 0z m-1164 -17 c9 -11 10 -14 2 -9 -7 4 -22 2 -34 -4 -19 -11 -20 -10 -9
9 13 25 23 26 41 4z m746 -15 c-18 -12 -23 -10 -24 12 -1 17 1 18 17 8 14 -9
16 -14 7 -20z m-887 12 c0 -5 -5 -10 -11 -10 -5 0 -7 5 -4 10 3 6 8 10 11 10
2 0 4 -4 4 -10z m1087 4 c-3 -3 -12 -4 -19 -1 -8 3 -5 6 6 6 11 1 17 -2 13 -5z
m243 -9 c7 -9 8 -15 2 -15 -5 0 -12 7 -16 15 -3 8 -4 15 -2 15 2 0 9 -7 16
-15z m-937 -12 c-7 -2 -19 -2 -25 0 -7 3 -2 5 12 5 14 0 19 -2 13 -5z"/>
<path d="M1909 3158 c-1 -7 -3 -31 -5 -53 -2 -22 -5 -53 -8 -68 -6 -27 -4 -28
32 -25 l37 3 -2 75 c-1 73 -2 75 -27 78 -16 2 -27 -2 -27 -10z"/>
<path d="M1672 3157 c-53 -64 21 -190 78 -131 47 49 21 144 -39 144 -16 0 -33
-6 -39 -13z"/>
<path d="M2200 2807 c-31 -16 -42 -70 -38 -184 4 -98 19 -121 85 -124 89 -6
134 90 102 216 -19 75 -93 121 -149 92z"/>
<path d="M1308 2813 c-39 -42 -48 -67 -47 -125 0 -83 26 -135 80 -165 44 -23
48 -24 82 -9 43 18 74 64 83 123 9 61 -28 158 -70 184 -46 28 -97 25 -128 -8z"/>
<path d="M2576 2807 c-41 -43 -54 -110 -36 -178 16 -61 34 -86 81 -109 39 -21
41 -21 76 -3 52 25 76 63 81 126 3 40 -1 66 -18 104 -28 66 -49 84 -105 90
-42 5 -48 3 -79 -30z"/>
<path d="M3008 2839 c-22 -12 -25 -96 -5 -123 12 -16 17 -17 38 -6 42 22 59
42 59 70 0 44 -57 80 -92 59z"/>
<path d="M2990 2591 c0 -88 11 -102 63 -82 80 31 54 161 -31 161 l-32 0 0 -79z"/>
<path d="M3328 2813 c-14 -16 -31 -38 -37 -50 -16 -31 -14 -112 5 -167 14 -40
23 -50 65 -72 46 -23 51 -23 84 -10 41 18 72 64 81 123 9 61 -28 158 -70 184
-46 28 -97 25 -128 -8z"/>
<path d="M1165 2360 c-3 -6 1 -7 9 -4 18 7 21 14 7 14 -6 0 -13 -4 -16 -10z"/>
<path d="M1210 2360 c0 -5 4 -10 9 -10 6 0 13 5 16 10 3 6 -1 10 -9 10 -9 0
-16 -4 -16 -10z"/>
<path d="M1190 2329 c0 -5 5 -7 10 -4 6 3 10 8 10 11 0 2 -4 4 -10 4 -5 0 -10
-5 -10 -11z"/>
<path d="M1156 2284 c-8 -22 1 -31 16 -16 9 9 9 15 1 23 -7 7 -12 5 -17 -7z"/>
<path d="M1172 2258 c-15 -15 -16 -45 -2 -53 6 -3 10 -2 10 4 0 6 7 8 15 5 16
-6 20 12 9 40 -7 19 -16 20 -32 4z"/>
<path d="M1153 2173 c1 -20 9 -30 26 -35 30 -9 38 -3 23 15 -7 8 -8 18 -4 23
4 4 -2 2 -12 -6 -11 -8 -17 -10 -13 -4 4 7 0 17 -8 24 -12 10 -14 7 -12 -17z"/>
<path d="M1160 2120 c0 -5 5 -10 10 -10 6 0 10 5 10 10 0 6 -4 10 -10 10 -5 0
-10 -4 -10 -10z"/>
<path d="M1180 2045 c0 -8 5 -15 10 -15 6 0 10 7 10 15 0 8 -4 15 -10 15 -5 0
-10 -7 -10 -15z"/>
<path d="M1180 1770 c0 -5 7 -10 16 -10 8 0 12 5 9 10 -3 6 -10 10 -16 10 -5
0 -9 -4 -9 -10z"/>
<path d="M1645 2280 c3 -5 8 -10 11 -10 2 0 4 5 4 10 0 6 -5 10 -11 10 -5 0
-7 -4 -4 -10z"/>
<path d="M1620 2255 c0 -8 5 -15 11 -15 5 0 7 -4 4 -10 -3 -5 -2 -10 4 -10 17
0 23 20 11 35 -16 19 -30 19 -30 0z"/>
<path d="M1596 2122 c-3 -6 1 -15 8 -21 8 -7 17 -8 20 -3 3 6 -1 15 -8 21 -8
7 -17 8 -20 3z"/>
<path d="M2600 1983 c0 -7 7 -13 15 -13 8 0 15 6 15 13 0 8 -7 14 -15 14 -8 0
-15 -6 -15 -14z"/>
<path d="M2830 1840 c0 -5 5 -10 10 -10 6 0 10 5 10 10 0 6 -4 10 -10 10 -5 0
-10 -4 -10 -10z"/>
<path d="M483 3223 c15 -2 37 -2 50 0 12 2 0 4 -28 4 -27 0 -38 -2 -22 -4z"/>
<path d="M943 3213 c20 -2 54 -2 75 0 20 2 3 4 -38 4 -41 0 -58 -2 -37 -4z"/>
<path d="M1108 3213 c7 -3 16 -2 19 1 4 3 -2 6 -13 5 -11 0 -14 -3 -6 -6z"/>
<path d="M1095 3170 c-10 -11 -16 -22 -14 -24 2 -2 12 7 22 20 22 29 17 32 -8
4z"/>
<path d="M673 3163 c15 -2 37 -2 50 0 12 2 0 4 -28 4 -27 0 -38 -2 -22 -4z"/>
<path d="M613 3145 c-3 -9 -3 -18 -1 -21 3 -3 8 4 11 16 6 23 -1 27 -10 5z"/>
<path d="M511 3124 c0 -11 3 -14 6 -6 3 7 2 16 -1 19 -3 4 -6 -2 -5 -13z"/>
<path d="M1072 3090 c0 -19 2 -27 5 -17 2 9 2 25 0 35 -3 9 -5 1 -5 -18z"/>
<path d="M612 3020 c0 -19 2 -27 5 -17 2 9 2 25 0 35 -3 9 -5 1 -5 -18z"/>
<path d="M1071 3024 c0 -11 3 -14 6 -6 3 7 2 16 -1 19 -3 4 -6 -2 -5 -13z"/>
<path d="M511 2994 c0 -11 3 -14 6 -6 3 7 2 16 -1 19 -3 4 -6 -2 -5 -13z"/>
<path d="M602 2915 c0 -16 2 -22 5 -12 2 9 2 23 0 30 -3 6 -5 -1 -5 -18z"/>
<path d="M971 2834 c0 -11 3 -14 6 -6 3 7 2 16 -1 19 -3 4 -6 -2 -5 -13z"/>
<path d="M603 2740 c0 -25 2 -35 4 -22 2 12 2 32 0 45 -2 12 -4 2 -4 -23z"/>
<path d="M981 2754 c0 -11 3 -14 6 -6 3 7 2 16 -1 19 -3 4 -6 -2 -5 -13z"/>
<path d="M982 2625 c0 -16 2 -22 5 -12 2 9 2 23 0 30 -3 6 -5 -1 -5 -18z"/>
<path d="M602 2615 c0 -16 2 -22 5 -12 2 9 2 23 0 30 -3 6 -5 -1 -5 -18z"/>
<path d="M497 2551 c-4 -17 -3 -21 5 -13 5 5 8 16 6 23 -3 8 -7 3 -11 -10z"/>
<path d="M620 2541 c0 -6 4 -13 10 -16 6 -3 7 1 4 9 -7 18 -14 21 -14 7z"/>
<path d="M944 2498 l-19 -23 23 19 c21 18 27 26 19 26 -2 0 -12 -10 -23 -22z"/>
<path d="M518 2473 c6 -2 18 -2 25 0 6 3 1 5 -13 5 -14 0 -19 -2 -12 -5z"/>
<path d="M1045 1679 c-4 -6 -5 -12 -2 -15 2 -3 7 2 10 11 7 17 1 20 -8 4z"/>
<path d="M1114 1676 c-3 -8 -16 -13 -30 -11 -13 1 -24 -2 -24 -6 0 -5 18 -9
39 -9 34 0 38 3 34 20 -6 24 -12 25 -19 6z"/>
</g>
</svg>
